<svg width="0" height="0" class="hidden">
  <symbol id="refresh" xmlns="http://www.w3.org/2000/svg" viewBox="0 0 118.04 122.88">
    <path d="M16.08,59.26A8,8,0,0,1,0,59.26a59,59,0,0,1,97.13-45V8a8,8,0,1,1,16.08,0V33.35a8,8,0,0,1-8,8L80.82,43.62a8,8,0,1,1-1.44-15.95l8-.73A43,43,0,0,0,16.08,59.26Zm22.77,19.6a8,8,0,0,1,1.44,16l-10.08.91A42.95,42.95,0,0,0,102,63.86a8,8,0,0,1,16.08,0A59,59,0,0,1,22.3,110v4.18a8,8,0,0,1-16.08,0V89.14h0a8,8,0,0,1,7.29-8l25.31-2.3Z"></path>
  </symbol>
  <symbol xmlns="http://www.w3.org/2000/svg" viewBox="0 0 320 512" id="pause">
    <path d="M48 64C21.5 64 0 85.5 0 112V400c0 26.5 21.5 48 48 48H80c26.5 0 48-21.5 48-48V112c0-26.5-21.5-48-48-48H48zm192 0c-26.5 0-48 21.5-48 48V400c0 26.5 21.5 48 48 48h32c26.5 0 48-21.5 48-48V112c0-26.5-21.5-48-48-48H240z"></path>
  </symbol>
  <symbol xmlns="http://www.w3.org/2000/svg" viewBox="0 0 384 512" id="play">
    <path d="M73 39c-14.8-9.1-33.4-9.4-48.5-.9S0 62.6 0 80V432c0 17.4 9.4 33.4 24.5 41.9s33.7 8.1 48.5-.9L361 297c14.3-8.7 23-24.2 23-41s-8.7-32.2-23-41L73 39z"></path>
  </symbol>
</svg>